<svg width="540" height="156" viewBox="0 0 540 156" fill="none" xmlns="http://www.w3.org/2000/svg">
<path d="M537 138.009C537 146.323 530.126 153.057 521.623 153.057H18.3973C9.8985 153.057 3 146.323 3 138.009V18.0105C3 9.70097 9.8985 2.94336 18.3973 2.94336H521.619C530.126 2.94336 536.996 9.70097 536.996 18.0105L537 138.009Z" fill="white"/>
<path d="M520 3.12488C529.26 3.12488 536.795 10.4715 536.795 19.5V136.5C536.795 145.529 529.26 152.875 520 152.875H20C10.74 152.875 3.205 145.529 3.205 136.5V19.5C3.205 10.4715 10.74 3.12488 20 3.12488H520ZM520 1.52588e-05H20C9.005 1.52588e-05 0 8.77989 0 19.5V136.5C0 147.22 9.005 156 20 156H520C530.995 156 540 147.22 540 136.5V19.5C540 8.77989 530.995 1.52588e-05 520 1.52588e-05Z" fill="#A6A6A6"/>
<path d="M120.512 77.1574C120.396 64.5877 131.068 58.4725 131.556 58.1878C125.512 49.5961 116.144 48.4222 112.852 48.3286C104.984 47.5213 97.3524 52.9189 93.3444 52.9189C89.2564 52.9189 83.0844 48.4066 76.4324 48.5392C67.8723 48.6679 59.8644 53.5 55.4724 61.0036C46.4084 76.3033 53.1684 98.7868 61.8524 111.154C66.1964 117.21 71.2724 123.973 77.9164 123.735C84.4164 123.474 86.8444 119.695 94.6884 119.695C102.46 119.695 104.74 123.735 111.516 123.583C118.492 123.474 122.884 117.499 127.076 111.388C132.096 104.446 134.112 97.609 134.192 97.258C134.028 97.2034 120.644 92.2231 120.512 77.1574Z" fill="black"/>
<path d="M107.712 40.1932C111.208 35.9305 113.6 30.1312 112.936 24.2461C107.876 24.4645 101.548 27.6586 97.9044 31.8277C94.6804 35.5015 91.8004 41.5231 92.5443 47.1859C98.2283 47.5993 104.064 44.3896 107.712 40.1932Z" fill="black"/>
<path d="M196.199 39.0349C196.199 43.6252 194.787 47.0806 191.967 49.4011C189.355 51.5422 185.643 52.6147 180.835 52.6147C178.451 52.6147 176.411 52.5133 174.703 52.3105V27.2296C176.931 26.8786 179.331 26.6992 181.923 26.6992C186.503 26.6992 189.955 27.6703 192.283 29.6125C194.891 31.8082 196.199 34.9477 196.199 39.0349ZM191.779 39.148C191.779 36.1723 190.971 33.8908 189.355 32.2996C187.739 30.7123 185.379 29.9167 182.271 29.9167C180.951 29.9167 179.827 30.0025 178.895 30.1819V49.249C179.411 49.327 180.355 49.3621 181.727 49.3621C184.935 49.3621 187.411 48.4924 189.155 46.753C190.899 45.0136 191.779 42.4786 191.779 39.148Z" fill="black"/>
<path d="M219.636 43.0445C219.636 45.872 218.808 48.1886 217.152 50.006C215.416 51.8741 213.116 52.8062 210.244 52.8062C207.476 52.8062 205.272 51.9131 203.628 50.1191C201.988 48.329 201.168 46.0709 201.168 43.3487C201.168 40.5017 202.012 38.1656 203.708 36.3521C205.404 34.5386 207.684 33.6299 210.556 33.6299C213.324 33.6299 215.548 34.523 217.232 36.3131C218.832 38.0525 219.636 40.2989 219.636 43.0445ZM215.288 43.1771C215.288 41.4806 214.912 40.0259 214.164 38.813C213.284 37.3466 212.032 36.6134 210.404 36.6134C208.72 36.6134 207.44 37.3466 206.56 38.813C205.808 40.0259 205.436 41.504 205.436 43.2512C205.436 44.9477 205.812 46.4024 206.56 47.6153C207.468 49.0817 208.732 49.8149 210.364 49.8149C211.964 49.8149 213.22 49.07 214.124 47.5763C214.9 46.34 215.288 44.8736 215.288 43.1771Z" fill="black"/>
<path d="M251.058 34.0039L245.158 52.3885H241.318L238.874 44.4052C238.254 42.4123 237.75 40.4311 237.358 38.4655H237.282C236.918 40.4857 236.414 42.463 235.766 44.4052L233.17 52.3885H229.286L223.738 34.0039H228.046L230.178 42.7438C230.694 44.8108 231.118 46.7803 231.458 48.6445H231.534C231.846 47.1079 232.362 45.1501 233.09 42.7828L235.766 34.0078H239.182L241.746 42.5956C242.366 44.6899 242.87 46.7062 243.258 48.6484H243.374C243.658 46.7569 244.086 44.7406 244.654 42.5956L246.942 34.0078H251.058V34.0039Z" fill="black"/>
<path d="M272.792 52.3889H268.6V41.8589C268.6 38.6141 267.336 36.9917 264.8 36.9917C263.556 36.9917 262.552 37.4363 261.772 38.3294C261 39.2225 260.608 40.2755 260.608 41.4806V52.385H256.416V39.2576C256.416 37.643 256.364 35.8919 256.264 33.9965H259.948L260.144 36.8708H260.26C260.748 35.9777 261.476 35.2406 262.432 34.6517C263.568 33.9653 264.84 33.6182 266.232 33.6182C267.992 33.6182 269.456 34.172 270.62 35.2835C272.068 36.6446 272.792 38.6765 272.792 41.3753V52.3889Z" fill="black"/>
<path d="M284.352 52.3887H280.164V25.5684H284.352V52.3887Z" fill="black"/>
<path d="M309.031 43.0445C309.031 45.872 308.203 48.1886 306.547 50.006C304.811 51.8741 302.507 52.8062 299.639 52.8062C296.867 52.8062 294.662 51.9131 293.022 50.1191C291.382 48.329 290.562 46.0709 290.562 43.3487C290.562 40.5017 291.407 38.1656 293.103 36.3521C294.799 34.5386 297.079 33.6299 299.947 33.6299C302.719 33.6299 304.938 34.523 306.626 36.3131C308.226 38.0525 309.031 40.2989 309.031 43.0445ZM304.678 43.1771C304.678 41.4806 304.303 40.0259 303.555 38.813C302.679 37.3466 301.422 36.6134 299.798 36.6134C298.11 36.6134 296.83 37.3466 295.954 38.813C295.202 40.0259 294.831 41.504 294.831 43.2512C294.831 44.9477 295.206 46.4024 295.954 47.6153C296.862 49.0817 298.127 49.8149 299.759 49.8149C301.359 49.8149 302.61 49.07 303.514 47.5763C304.294 46.34 304.678 44.8736 304.678 43.1771Z" fill="black"/>
<path d="M329.32 52.3889H325.556L325.244 50.2712H325.128C323.84 51.9599 322.004 52.8062 319.62 52.8062C317.84 52.8062 316.4 52.2485 315.316 51.1409C314.332 50.1347 313.84 48.8828 313.84 47.3969C313.84 45.1505 314.8 43.4384 316.732 42.2528C318.66 41.0672 321.372 40.4861 324.864 40.5134V40.1702C324.864 37.7483 323.56 36.5393 320.948 36.5393C319.088 36.5393 317.448 36.9956 316.032 37.9004L315.18 35.2172C316.932 34.1603 319.096 33.6299 321.648 33.6299C326.576 33.6299 329.048 36.1649 329.048 41.2349V48.0053C329.048 49.8422 329.14 51.3047 329.32 52.3889ZM324.968 46.0709V43.2356C320.344 43.1576 318.032 44.3939 318.032 46.9406C318.032 47.9 318.296 48.6176 318.836 49.0973C319.376 49.577 320.064 49.8149 320.884 49.8149C321.804 49.8149 322.664 49.5302 323.448 48.9647C324.236 48.3953 324.72 47.6738 324.9 46.7885C324.944 46.5896 324.968 46.3478 324.968 46.0709Z" fill="black"/>
<path d="M353.139 52.3887H349.419L349.223 49.4364H349.107C347.919 51.6828 345.895 52.806 343.051 52.806C340.779 52.806 338.887 51.9363 337.387 50.1969C335.887 48.4575 335.139 46.1994 335.139 43.4265C335.139 40.4508 335.951 38.0406 337.583 36.1998C339.163 34.4838 341.099 33.6258 343.403 33.6258C345.935 33.6258 347.707 34.4565 348.715 36.1218H348.795V25.5684H352.991V47.4357C352.991 49.2258 353.039 50.8755 353.139 52.3887ZM348.795 44.6355V41.5701C348.795 41.0397 348.755 40.6107 348.679 40.2831C348.443 39.3003 347.935 38.4735 347.163 37.8066C346.383 37.1397 345.443 36.8043 344.359 36.8043C342.795 36.8043 341.571 37.4088 340.671 38.6217C339.779 39.8346 339.327 41.3829 339.327 43.2744C339.327 45.0918 339.755 46.566 340.615 47.7009C341.523 48.9099 342.747 49.5144 344.279 49.5144C345.655 49.5144 346.755 49.0113 347.591 48.0012C348.399 47.0691 348.795 45.9459 348.795 44.6355Z" fill="black"/>
<path d="M388.991 43.0445C388.991 45.872 388.163 48.1886 386.507 50.006C384.771 51.8741 382.475 52.8062 379.599 52.8062C376.835 52.8062 374.631 51.9131 372.983 50.1191C371.343 48.329 370.523 46.0709 370.523 43.3487C370.523 40.5017 371.367 38.1656 373.063 36.3521C374.759 34.5386 377.039 33.6299 379.915 33.6299C382.679 33.6299 384.907 34.523 386.587 36.3131C388.187 38.0525 388.991 40.2989 388.991 43.0445ZM384.647 43.1771C384.647 41.4806 384.271 40.0259 383.523 38.813C382.639 37.3466 381.391 36.6134 379.759 36.6134C378.079 36.6134 376.799 37.3466 375.915 38.813C375.163 40.0259 374.791 41.504 374.791 43.2512C374.791 44.9477 375.167 46.4024 375.915 47.6153C376.823 49.0817 378.087 49.8149 379.719 49.8149C381.319 49.8149 382.579 49.07 383.483 47.5763C384.255 46.34 384.647 44.8736 384.647 43.1771Z" fill="black"/>
<path d="M411.532 52.3889H407.344V41.8589C407.344 38.6141 406.08 36.9917 403.54 36.9917C402.296 36.9917 401.292 37.4363 400.516 38.3294C399.74 39.2225 399.352 40.2755 399.352 41.4806V52.385H395.156V39.2576C395.156 37.643 395.108 35.8919 395.008 33.9965H398.688L398.884 36.8708H399C399.492 35.9777 400.22 35.2406 401.172 34.6517C402.312 33.9653 403.58 33.6182 404.976 33.6182C406.732 33.6182 408.196 34.172 409.36 35.2835C410.812 36.6446 411.532 38.6765 411.532 41.3753V52.3889Z" fill="black"/>
<path d="M439.744 37.0659H435.128V45.9969C435.128 48.2667 435.948 49.4016 437.572 49.4016C438.324 49.4016 438.948 49.3392 439.44 49.2105L439.548 52.311C438.72 52.6152 437.632 52.7673 436.292 52.7673C434.636 52.7673 433.348 52.2759 432.416 51.2931C431.48 50.3103 431.016 48.6567 431.016 46.3362V37.0659H428.26V34.0044H431.016V30.6348L435.124 29.4258V34.0005H439.74V37.0659H439.744Z" fill="black"/>
<path d="M461.935 52.3887H457.739V41.9367C457.739 38.6412 456.475 36.9915 453.943 36.9915C451.999 36.9915 450.671 37.947 449.943 39.858C449.819 40.2597 449.747 40.7511 449.747 41.3283V52.3848H445.559V25.5684H449.747V36.6483H449.827C451.147 34.632 453.039 33.6258 455.491 33.6258C457.227 33.6258 458.663 34.1796 459.803 35.2911C461.223 36.6756 461.935 38.7348 461.935 41.457V52.3887Z" fill="black"/>
<path d="M484.826 42.3268C484.826 43.06 484.77 43.6762 484.67 44.1793H472.099C472.155 45.9967 472.755 47.3812 473.919 48.3406C474.983 49.1986 476.355 49.6276 478.035 49.6276C479.895 49.6276 481.59 49.339 483.118 48.7579L483.774 51.5971C481.986 52.3537 479.882 52.732 477.446 52.732C474.526 52.732 472.226 51.8935 470.562 50.2165C468.89 48.5395 468.062 46.2892 468.062 43.4656C468.062 40.6927 468.835 38.3839 470.391 36.5431C472.014 34.5775 474.211 33.5947 476.983 33.5947C479.695 33.5947 481.755 34.5775 483.147 36.5431C484.271 38.1031 484.826 40.0336 484.826 42.3268ZM480.826 41.2699C480.858 40.057 480.582 39.0118 480.014 38.1304C479.286 36.9955 478.178 36.4261 476.678 36.4261C475.31 36.4261 474.194 36.9799 473.342 38.0914C472.646 38.9767 472.235 40.0336 472.099 41.2699H480.826Z" fill="black"/>
<path d="M214.581 122.866H205.497L200.521 107.621H183.225L178.485 122.866H169.641L186.777 70.9648H197.361L214.581 122.866ZM199.021 101.225L194.521 87.6724C194.045 86.2879 193.153 83.0275 191.837 77.8951H191.677C191.153 80.1025 190.309 83.3629 189.149 87.6724L184.729 101.225H199.021Z" fill="black"/>
<path d="M258.65 103.693C258.65 110.058 256.886 115.089 253.358 118.782C250.198 122.07 246.274 123.712 241.59 123.712C236.534 123.712 232.902 121.941 230.69 118.4H230.53V138.115H222.002V97.7612C222.002 93.7598 221.894 89.6532 221.686 85.4412H229.186L229.662 91.3731H229.822C232.666 86.9037 236.982 84.6729 242.774 84.6729C247.302 84.6729 251.082 86.4161 254.106 89.9066C257.138 93.401 258.65 97.9952 258.65 103.693ZM249.962 103.997C249.962 100.355 249.122 97.3518 247.434 94.9884C245.59 92.5236 243.114 91.2912 240.01 91.2912C237.906 91.2912 235.994 91.9775 234.286 93.3308C232.574 94.6958 231.454 96.4782 230.93 98.6856C230.666 99.7152 230.534 100.558 230.534 101.221V107.461C230.534 110.183 231.39 112.48 233.102 114.356C234.814 116.232 237.038 117.168 239.774 117.168C242.986 117.168 245.486 115.959 247.274 113.548C249.066 111.134 249.962 107.952 249.962 103.997Z" fill="black"/>
<path d="M302.796 103.693C302.796 110.058 301.032 115.089 297.5 118.782C294.344 122.07 290.42 123.712 285.736 123.712C280.68 123.712 277.048 121.941 274.84 118.4H274.68V138.115H266.152V97.7612C266.152 93.7598 266.044 89.6532 265.836 85.4412H273.336L273.812 91.3731H273.972C276.812 86.9037 281.128 84.6729 286.924 84.6729C291.448 84.6729 295.228 86.4161 298.26 89.9066C301.28 93.401 302.796 97.9952 302.796 103.693ZM294.108 103.997C294.108 100.355 293.264 97.3518 291.576 94.9884C289.732 92.5236 287.264 91.2912 284.156 91.2912C282.048 91.2912 280.14 91.9775 278.428 93.3308C276.716 94.6958 275.6 96.4782 275.076 98.6856C274.816 99.7152 274.68 100.558 274.68 101.221V107.461C274.68 110.183 275.536 112.48 277.24 114.356C278.952 116.228 281.176 117.168 283.92 117.168C287.132 117.168 289.632 115.959 291.42 113.548C293.212 111.134 294.108 107.952 294.108 103.997Z" fill="black"/>
<path d="M352.157 108.311C352.157 112.726 350.585 116.318 347.429 119.091C343.961 122.121 339.133 123.634 332.929 123.634C327.201 123.634 322.609 122.558 319.133 120.401L321.109 113.471C324.853 115.678 328.961 116.786 333.437 116.786C336.649 116.786 339.149 116.076 340.945 114.664C342.733 113.252 343.625 111.357 343.625 108.994C343.625 106.888 342.889 105.113 341.413 103.674C339.945 102.235 337.493 100.897 334.069 99.6608C324.749 96.2717 320.093 91.307 320.093 84.7784C320.093 80.5118 321.725 77.0135 324.993 74.2913C328.249 71.5652 332.593 70.2041 338.025 70.2041C342.869 70.2041 346.893 71.027 350.105 72.6689L347.973 79.4471C344.973 77.8559 341.581 77.0603 337.785 77.0603C334.785 77.0603 332.441 77.7818 330.761 79.217C329.341 80.5001 328.629 82.064 328.629 83.9165C328.629 85.9679 329.441 87.6644 331.073 88.9982C332.493 90.2306 335.073 91.5644 338.817 93.0035C343.397 94.8014 346.761 96.9035 348.925 99.3137C351.081 101.716 352.157 104.723 352.157 108.311Z" fill="black"/>
<path d="M380.353 91.6811H370.953V109.851C370.953 114.473 372.609 116.782 375.929 116.782C377.453 116.782 378.717 116.653 379.717 116.395L379.953 122.71C378.273 123.322 376.061 123.63 373.321 123.63C369.953 123.63 367.321 122.628 365.421 120.627C363.529 118.622 362.577 115.261 362.577 110.538V91.6733H356.977V85.4333H362.577V78.581L370.953 76.1162V85.4333H380.353V91.6811Z" fill="black"/>
<path d="M422.764 103.845C422.764 109.598 421.076 114.321 417.708 118.014C414.176 121.816 409.488 123.712 403.644 123.712C398.012 123.712 393.528 121.891 390.184 118.248C386.84 114.605 385.168 110.007 385.168 104.465C385.168 98.6661 386.888 93.9159 390.34 90.2226C393.784 86.5254 398.432 84.6768 404.276 84.6768C409.908 84.6768 414.44 86.4981 417.86 90.1446C421.132 93.6819 422.764 98.2488 422.764 103.845ZM413.916 104.114C413.916 100.663 413.16 97.7028 411.628 95.2341C409.84 92.2467 407.284 90.7569 403.972 90.7569C400.544 90.7569 397.94 92.2506 396.152 95.2341C394.62 97.7067 393.864 100.714 393.864 104.27C393.864 107.722 394.62 110.682 396.152 113.147C397.996 116.134 400.572 117.624 403.896 117.624C407.152 117.624 409.708 116.103 411.552 113.069C413.124 110.553 413.916 107.562 413.916 104.114Z" fill="black"/>
<path d="M450.485 92.7537C449.641 92.6016 448.741 92.5236 447.797 92.5236C444.797 92.5236 442.477 93.6272 440.845 95.8385C439.425 97.7885 438.713 100.253 438.713 103.229V122.866H430.189L430.269 97.227C430.269 92.9136 430.161 88.9863 429.949 85.4451H437.377L437.689 92.6055H437.925C438.825 90.1446 440.245 88.1634 442.189 86.6775C444.089 85.3398 446.141 84.6729 448.353 84.6729C449.141 84.6729 449.853 84.7274 450.485 84.8249V92.7537Z" fill="black"/>
<path d="M488.624 102.383C488.624 103.872 488.524 105.128 488.312 106.154H462.728C462.828 109.851 464.064 112.679 466.44 114.629C468.596 116.372 471.384 117.246 474.808 117.246C478.596 117.246 482.052 116.657 485.16 115.475L486.496 121.247C482.864 122.791 478.576 123.56 473.628 123.56C467.676 123.56 463.004 121.851 459.604 118.439C456.212 115.026 454.512 110.444 454.512 104.695C454.512 99.052 456.092 94.3525 459.256 90.6046C462.568 86.6032 467.044 84.6025 472.676 84.6025C478.208 84.6025 482.396 86.6032 485.24 90.6046C487.492 93.7831 488.624 97.7143 488.624 102.383ZM480.492 100.226C480.548 97.7611 479.992 95.6317 478.836 93.8338C477.36 91.5211 475.092 90.3667 472.04 90.3667C469.252 90.3667 466.984 91.4938 465.252 93.7558C463.832 95.5537 462.988 97.7104 462.728 100.222H480.492V100.226Z" fill="black"/>
</svg>
